<?xml version="1.0" encoding="utf-8"?>
<!-- Generator: Adobe Illustrator 27.9.0, SVG Export Plug-In . SVG Version: 6.00 Build 0)  -->
<svg version="1.1" id="레이어_1" xmlns="http://www.w3.org/2000/svg" xmlns:xlink="http://www.w3.org/1999/xlink" x="0px"
	 y="0px" viewBox="0 0 2561.08 907.82" style="enable-background:new 0 0 2561.08 907.82;" xml:space="preserve">
<style type="text/css">
	.st0{fill:#404040;}
	.st1{fill:#FFFFFF;}
	.st2{fill:#0050FF;}
</style>
<g>
	<g>
		<path class="st2" d="M2107.21,907.72H453.86C203.2,907.72,0,704.52,0,453.86v0C0,203.2,203.2,0,453.86,0h1653.35
			c250.66,0,453.86,203.2,453.86,453.86v0C2561.08,704.52,2357.88,907.72,2107.21,907.72z"/>
		<path class="st1" d="M2283.81,228.46h-54.93v27.47c0,43.43-8.26,95.52-28.93,147.68c-4.99-6.97-10.2-13.75-15.61-20.33
			c-39.73-48.34-90.64-85.98-151.28-111.85c-66.82-28.52-146.25-42.98-236.08-42.98h-27.47v54.93h27.47
			c209.91,0,318.99,82.25,374.97,177.21c-63.75,107.22-189.05,200.75-414.47,200.75c-77.77,0-134.57-27.82-172.3-84.71
			c11.65-28.03,21.22-60.16,28.68-96.25c13.13-63.64,19.79-139.44,19.79-225.3c0-36.26-6.53-65.09-19.41-85.71
			c-14.33-22.97-36.52-35.69-62.49-35.81h-0.32c-18.46,0-35.37,7.14-48.94,20.64c-21.36,21.26-30.12,58.75-32.64,103.43
			c-5,88.48,4.78,204.69,40.23,292.88c4.06,10.1,8.46,19.76,13.17,28.93c-11.17,21.51-23.94,38.92-38.22,51.95
			c-25.82,23.55-56.61,33.34-94.13,29.88c-37.54-3.45-71.94-23.74-105.22-62.06c-30.11-34.71-52.64-76.39-70.75-109.88
			c-6.43-11.9-11.99-22.19-17.25-30.98c-18.83-31.49-44.66-34.61-61.06-27.7c-20.96,8.84-31.24,33.79-24.49,59.34
			c6.64,25.07,13.74,64.91,17.56,101.12c7.43,70.4-9.1,73.35-20.06,72.31c-20.04-1.91-22.12-37.62-23.28-56.01
			c-2.31-36.52,2.68-81.2,7.09-120.62c2.23-19.99,4.23-37.84,5.13-53.08c38.42-3.48,74.52-21.19,103.97-51.47
			c46.78-48.09,71.4-121.45,62.71-186.89c-6.59-49.61-40.27-82.61-81.92-80.25c-57.18,3.23-124.53,74.28-137.26,260.48
			c-37.49-4.89-71.48-11.22-102.17-16.95c-80.45-14.96-138.58-25.8-177.21,6.31c-24.49,20.36-35.96,54.25-36.09,106.62v27.47
			c0,58.69-45.81,103.87-136.16,134.28c-75.46,25.39-181.83,39.38-299.55,39.38h-27.47v54.93h27.47
			c87.38,0,213.32-7.34,317.06-42.26c51.9-17.46,92.79-40.3,121.53-67.87c34.32-32.93,51.84-72.49,52.04-117.6
			c0.02-0.28,0.02-0.58,0.02-0.87v-27.47c0.1-33.81,5.58-55.48,16.26-64.35c18.83-15.65,68.78-6.34,132.05,5.44
			c32.71,6.09,69.1,12.87,109.88,18.03c-0.85,13.98-2.81,31.59-4.88,50.01c-4.66,41.67-9.94,88.89-7.31,130.21
			c3.58,56.43,18.82,87.87,47.77,101.06c31.58,14.39,65.51,5.41,78.69-6.61c22.41-20.42,31.06-59.18,26.47-118.47
			c-1.3-16.61-3.58-33.82-6.33-50.25c39.38,71.21,102.01,169.64,207.73,179.36c53.02,4.86,98.84-9.94,136.18-44.01
			c12.65-11.54,24.25-25.3,34.81-41.25c47.41,56.83,114.56,85.54,200.62,85.54c89.82,0,171.14-14.37,241.72-42.71
			c64.19-25.8,119.44-63.02,164.2-110.66c13.05-13.88,25.14-28.63,36.22-44.15c24,63.84,29.26,127.13,29.26,170.24v27.47h54.93
			v-27.47c0-54.78-7.31-107.32-21.72-156.14c-7.44-25.15-16.68-49.02-27.7-71.46c32.01-63.02,49.42-133.9,49.42-205.48V228.46z
			 M1136.5,220.48c17.81-36.17,37.47-49.81,49.94-50.5c0.33-0.02,0.65-0.03,0.98-0.03c14.03,0,21.36,17.45,23.37,32.66
			c6.46,48.64-12.68,105.44-47.62,141.38c-13.65,14.03-34.44,29.6-62.19,34.14C1106.65,297.04,1122.85,248.2,1136.5,220.48z
			 M1551.46,188.51c15.74,0,27.26,23.8,27.26,66.58c0,99.16-9.31,185.81-27,251.2c-23.49-75.32-29.03-181.07-26.93-243.54
			C1526.8,202.48,1542.13,188.51,1551.46,188.51z"/>
	</g>
</g>
</svg>
